<svg xmlns="http://www.w3.org/2000/svg" version="1.1" xmlns:xlink="http://www.w3.org/1999/xlink" xmlns:svgjs="http://svgjs.dev/svgjs" width="1440" height="700" preserveAspectRatio="none" viewBox="0 0 1440 700"><g mask="url(&quot;#SvgjsMask1084&quot;)" fill="none"><rect width="1440" height="700" x="0" y="0" fill="url(&quot;#SvgjsRadialGradient1085&quot;)"></rect><path d="M1261.65 399.02L1293.34 399.02L1293.34 427.78L1261.65 427.78z" stroke="rgba(255, 158, 0, 1)"></path><path d="M1438.25 90.44a56.03 56.03 0 1 0-22.39 109.8z" fill="rgba(0, 85, 255, 1)"></path><path d="M150.23 548.68 a62.05 62.05 0 1 0 124.1 0 a62.05 62.05 0 1 0 -124.1 0z" stroke="rgba(255, 158, 0, 1)"></path><path d="M1234.79 648.37L1252.31 648.37L1252.31 665.89L1234.79 665.89z" fill="rgba(255, 158, 0, 1)"></path><path d="M793.67 158.75a59.84 59.84 0 1 0 69.88-97.16z" fill="rgba(255, 158, 0, 1)"></path><path d="M326.18 10.06a14.74 14.74 0 1 0 6.07 28.85z" stroke="rgba(0, 85, 255, 1)"></path><path d="M475.94 626.39L517.66 626.39L517.66 668.11L475.94 668.11z" fill="rgba(255, 158, 0, 1)"></path><path d="M473.18 97.68 a28.26 28.26 0 1 0 56.52 0 a28.26 28.26 0 1 0 -56.52 0z" fill="rgba(255, 158, 0, 1)"></path><path d="M184.73 691.97L252.87 691.97L252.87 721.98L184.73 721.98z" fill="rgba(0, 85, 255, 1)"></path><path d="M597.42 577.62L658.98 577.62L658.98 613.27L597.42 613.27z" fill="rgba(255, 158, 0, 1)"></path><path d="M369.44 301.33 a19.23 19.23 0 1 0 38.46 0 a19.23 19.23 0 1 0 -38.46 0z" stroke="rgba(0, 85, 255, 1)"></path><path d="M1184.49 225.97L1227.9 225.97L1227.9 269.38L1184.49 269.38z" stroke="rgba(255, 158, 0, 1)"></path><path d="M1082.8 299.93L1090.81 299.93L1090.81 345.98L1082.8 345.98z" fill="rgba(0, 85, 255, 1)"></path><path d="M1335.78 515.92 a59 59 0 1 0 118 0 a59 59 0 1 0 -118 0z" stroke="rgba(255, 158, 0, 1)"></path><path d="M1370.91 662.59a67.82 67.82 0 1 0-135.39-8.23z" stroke="rgba(255, 158, 0, 1)"></path><path d="M-34.16 145.76 a49.39 49.39 0 1 0 98.78 0 a49.39 49.39 0 1 0 -98.78 0z" fill="rgba(255, 158, 0, 1)"></path><path d="M740.27 670.05L750.7 670.05L750.7 680.48L740.27 680.48z" fill="rgba(255, 158, 0, 1)"></path><path d="M257.6 374.57L293.06 374.57L293.06 420.46L257.6 420.46z" stroke="rgba(255, 158, 0, 1)"></path><path d="M731.44 429.54L736.01 429.54L736.01 434.11L731.44 434.11z" fill="rgba(0, 85, 255, 1)"></path><path d="M186.98 166.26a40.63 40.63 0 1 0-68.63-43.5z" fill="rgba(0, 85, 255, 1)"></path><path d="M781.61 644.11L843.48 644.11L843.48 705.98L781.61 705.98z" fill="rgba(0, 85, 255, 1)"></path><path d="M668.45 461.9L672.22 461.9L672.22 502.04L668.45 502.04z" stroke="rgba(0, 85, 255, 1)"></path><path d="M1185.07 189.27 a51.95 51.95 0 1 0 103.9 0 a51.95 51.95 0 1 0 -103.9 0z" stroke="rgba(255, 158, 0, 1)"></path><path d="M124.92 548.51L182.89 548.51L182.89 606.48L124.92 606.48z" stroke="rgba(255, 158, 0, 1)"></path><path d="M955.17 286.26a63.88 63.88 0 1 0 118.24-48.39z" fill="rgba(255, 158, 0, 1)"></path><path d="M714.04 34.84L721.06 34.84L721.06 41.86L714.04 41.86z" stroke="rgba(255, 158, 0, 1)"></path></g><defs><mask id="SvgjsMask1084"><rect width="1440" height="700" fill="#ffffff"></rect></mask><radialGradient cx="0%" cy="0%" r="1601.12" gradientUnits="userSpaceOnUse" id="SvgjsRadialGradient1085"><stop stop-color="#0e2a47" offset="0"></stop><stop stop-color="#00459e" offset="1"></stop></radialGradient></defs></svg>