<svg xmlns="http://www.w3.org/2000/svg" version="1.1" xmlns:xlink="http://www.w3.org/1999/xlink" xmlns:svgjs="http://svgjs.dev/svgjs" width="1440" height="700" preserveAspectRatio="none" viewBox="0 0 1440 700"><g mask="url(&quot;#SvgjsMask1042&quot;)" fill="none"><rect width="1440" height="700" x="0" y="0" fill="url(&quot;#SvgjsRadialGradient1043&quot;)"></rect><path d="M537.99 490.99L570.81 490.99L570.81 523.81L537.99 523.81z" fill="rgba(0, 85, 255, 1)"></path><path d="M219.86 435.17L258.86 435.17L258.86 474.17L219.86 474.17z" stroke="rgba(0, 205, 255, 1)"></path><path d="M1360.63 225.82L1415.11 225.82L1415.11 284.43L1360.63 284.43z" fill="rgba(255, 158, 0, 1)"></path><path d="M1102.28 384.44a35.7 35.7 0 1 0 2.19-71.37z" stroke="rgba(0, 205, 255, 1)"></path><path d="M861.78 388.68L875.41 388.68L875.41 402.31L861.78 402.31z" fill="rgba(0, 205, 255, 1)"></path><path d="M1349.59 575.6 a68.28 68.28 0 1 0 136.56 0 a68.28 68.28 0 1 0 -136.56 0z" fill="rgba(255, 158, 0, 1)"></path><path d="M356.58 150.61a50.42 50.42 0 1 0-65.79-76.42z" stroke="rgba(0, 205, 255, 1)"></path><path d="M1063.48 186.73L1104.75 186.73L1104.75 244.92L1063.48 244.92z" stroke="rgba(0, 85, 255, 1)"></path><path d="M835.1 274.72 a24.62 24.62 0 1 0 49.24 0 a24.62 24.62 0 1 0 -49.24 0z" stroke="rgba(0, 205, 255, 1)"></path><path d="M783.61 527.58 a21.6 21.6 0 1 0 43.2 0 a21.6 21.6 0 1 0 -43.2 0z" stroke="rgba(0, 205, 255, 1)"></path><path d="M431.09 33.43L470.76 33.43L470.76 91.43L431.09 91.43z" stroke="rgba(0, 85, 255, 1)"></path><path d="M585.27 335.52a33.62 33.62 0 1 0 21.31-63.77z" stroke="rgba(0, 205, 255, 1)"></path><path d="M454.32 133.11L505.29 133.11L505.29 172.49L454.32 172.49z" stroke="rgba(0, 205, 255, 1)"></path><path d="M1280.19 255.81 a2.75 2.75 0 1 0 5.5 0 a2.75 2.75 0 1 0 -5.5 0z" stroke="rgba(255, 158, 0, 1)"></path><path d="M282.3 8.62 a3.11 3.11 0 1 0 6.22 0 a3.11 3.11 0 1 0 -6.22 0z" stroke="rgba(0, 85, 255, 1)"></path><path d="M1226.12 417.2L1276.04 417.2L1276.04 467.12L1226.12 467.12z" fill="rgba(255, 158, 0, 1)"></path><path d="M432.86 684.01L433.07 684.01L433.07 684.22L432.86 684.22z" stroke="rgba(255, 158, 0, 1)"></path><path d="M495.05 334.03L524.94 334.03L524.94 343.74L495.05 343.74z" stroke="rgba(0, 85, 255, 1)"></path><path d="M748.81 285.85a62.91 62.91 0 1 0 112.9 55.54z" fill="rgba(0, 85, 255, 1)"></path><path d="M910.17 459.75a4.62 4.62 0 1 0-3.39-8.6z" fill="rgba(255, 158, 0, 1)"></path><path d="M403.75 392.28L427.87 392.28L427.87 445.49L403.75 445.49z" stroke="rgba(0, 205, 255, 1)"></path><path d="M679.51 189.28L712.74 189.28L712.74 222.51L679.51 222.51z" stroke="rgba(255, 158, 0, 1)"></path><path d="M535.71 441.79 a29.31 29.31 0 1 0 58.62 0 a29.31 29.31 0 1 0 -58.62 0z" stroke="rgba(0, 205, 255, 1)"></path><path d="M1340.2 388.99 a21.92 21.92 0 1 0 43.84 0 a21.92 21.92 0 1 0 -43.84 0z" fill="rgba(255, 158, 0, 1)"></path><path d="M353.74 229.88 a47.58 47.58 0 1 0 95.16 0 a47.58 47.58 0 1 0 -95.16 0z" fill="rgba(0, 205, 255, 1)"></path><path d="M482.99 247.86 a16.06 16.06 0 1 0 32.12 0 a16.06 16.06 0 1 0 -32.12 0z" stroke="rgba(255, 158, 0, 1)"></path></g><defs><mask id="SvgjsMask1042"><rect width="1440" height="700" fill="#ffffff"></rect></mask><radialGradient cx="0%" cy="0%" r="1601.12" gradientUnits="userSpaceOnUse" id="SvgjsRadialGradient1043"><stop stop-color="#0e2a47" offset="0"></stop><stop stop-color="#00459e" offset="1"></stop></radialGradient></defs></svg>